<svg width="80" height="120" viewBox="0 0 80 120" xmlns="http://www.w3.org/2000/svg">

  <!-- Curly Hair Base -->
  <rect x="14" y="8" width="52" height="65" fill="#5c3715"/>

  <!-- Extra Curl Layers -->
  <rect x="8" y="18" width="10" height="12" fill="#5c3715"/>
  <rect x="62" y="18" width="10" height="12" fill="#5c3715"/>

  <rect x="6" y="35" width="12" height="14" fill="#5c3715"/>
  <rect x="62" y="35" width="12" height="14" fill="#5c3715"/>

  <rect x="10" y="52" width="10" height="15" fill="#5c3715"/>
  <rect x="60" y="52" width="10" height="15" fill="#5c3715"/>

  <!-- Face -->
  <rect x="25" y="20" width="30" height="35" fill="#fae6d4"/>

  <!-- Green Eyes -->
  <rect x="30" y="35" width="5" height="5" fill="#2e7d32"/>
  <rect x="45" y="35" width="5" height="5" fill="#2e7d32"/>

  <!-- Blush -->
  <rect x="27" y="45" width="6" height="4" fill="#ffb3c1"/>
  <rect x="47" y="45" width="6" height="4" fill="#ffb3c1"/>

  <!-- Mouth -->
  <rect x="37" y="47" width="6" height="3" fill="#8b0000"/>

  <!-- Arms -->
  <rect x="18" y="58" width="10" height="25" fill="#fae6d4"/>
  <rect x="52" y="58" width="10" height="25" fill="#fae6d4"/>

  <!-- Body -->
  <rect x="28" y="55" width="24" height="35" fill="#8d36b3"/>

  <!-- Legs -->
  <rect x="28" y="90" width="10" height="20" fill="#444"/>
  <rect x="42" y="90" width="10" height="20" fill="#444"/>

</svg>
